<?xml version="1.0" encoding="utf-8"?>
<!-- Generator: Adobe Illustrator 23.0.4, SVG Export Plug-In . SVG Version: 6.00 Build 0)  -->
<svg version="1.1"
	 id="svg8" sodipodi:docname="drawing-2.svg" xmlns:cc="http://creativecommons.org/ns#" xmlns:dc="http://purl.org/dc/elements/1.1/" xmlns:inkscape="http://www.inkscape.org/namespaces/inkscape" xmlns:rdf="http://www.w3.org/1999/02/22-rdf-syntax-ns#" xmlns:sodipodi="http://sodipodi.sourceforge.net/DTD/sodipodi-0.dtd" xmlns:svg="http://www.w3.org/2000/svg"
	 xmlns="http://www.w3.org/2000/svg" xmlns:xlink="http://www.w3.org/1999/xlink" x="0px" y="0px" viewBox="0 0 738.1 562.2"
	 style="enable-background:new 0 0 738.1 562.2;" xml:space="preserve">
<style type="text/css">
	.st0{fill:#E2231A;}
</style>
<g id="layer1" transform="translate(-37.255657,-121.48674)" inkscape:groupmode="layer" inkscape:label="Layer 1">
	<g id="g1027">
		<g id="layer1-0" transform="matrix(0.44590806,0,0,0.44590806,306.04762,165.56674)" inkscape:label="Layer 1">
			
				<image style="overflow:visible;enable-background:new    ;" width="925" height="705" id="image928" xlink:href="FF341128DA1C2441.jpeg"  transform="matrix(1.7894 0 0 1.3676 -602.7599 49.4973)">
			</image>
			<path id="path911" inkscape:connector-curvature="0" class="st0" d="M-602.8,531.5V-98.9h827.6h827.6v630.4v630.4H224.8h-827.6
				V531.5z M834.8,958.5l-0.2-15.9H224.5h-610.1l-0.2,15c-0.1,8.2,0,15.4,0.2,15.9c0.3,0.8,115.9,1,610.5,1H835L834.8,958.5z
				 M834.6,893.8v-8.2H224.5h-610.1l-0.2,7.4c-0.1,4.1,0,7.9,0.2,8.4c0.3,0.8,105.3,1,610.3,0.8l610-0.2v-8.2H834.6z M-95.3,819.1
				c21.2-2.9,39-11.5,52.8-25.4c10.2-10.3,16.9-21.1,21.5-35.2c9.4-28.6,6.7-61-6.9-84.1c-13.5-22.9-34.5-37.9-61.3-43.6
				c-10.3-2.2-30-2.4-39.6-0.4c-24.3,5.1-43,16.9-57.1,35.9c-8.3,11.2-13.4,22.7-16.5,37.4c-2.3,11-2.3,27.6,0,39.6
				c4,20.3,11.2,35.1,24.1,49.1c12.6,13.7,32.6,23.8,52.9,26.7C-118.9,820-102.1,820-95.3,819.1L-95.3,819.1z M-120.9,806.4
				c-22.3-4.9-39.9-24.3-46.9-51.6c-5-19.5-5-45,0.1-64.3c6.1-23.2,20.8-40.3,40.1-46.7c5.3-1.8,7.2-2,16.9-2c10,0,11.4,0.1,16.9,2
				c24.9,8.6,41.2,32.4,45.4,66.1c2.4,19.6-1.3,48.3-8.3,63.2c-7.9,17-19.7,27.6-35.6,32.1C-97.6,806.7-116.2,807.5-120.9,806.4
				L-120.9,806.4z M555.6,819.1c10-1.4,20.2-4.5,28.8-8.6c12.8-6.2,20.6-12.1,28.9-22.2c14.1-17.2,21-36.3,21.9-61
				c1.1-28.9-8.4-53.6-27.9-72.9C580.7,628.2,535,621,500,637.7c-9.9,4.7-17.9,10.2-25,17.2c-13.9,13.7-22.5,29.6-26.7,49.5
				c-2,9.5-1.8,29.9,0.4,40.2c3.4,16.1,8.9,28.6,17.8,40.4c13.5,18,34.2,30.1,57.7,33.8C531.5,820,548.5,820.1,555.6,819.1
				L555.6,819.1z M531.2,806.7c-26.2-5-45-28.5-50.7-63.7c-1.6-9.8-1.8-29.2-0.4-38.2c5.1-32.9,20.2-53.7,44.3-61.2
				c7.4-2.3,23.3-2.5,30.4-0.3c32.3,9.9,51.3,46.3,47.7,91.5c-2.2,27.6-8.2,43.7-21.1,56.8c-5.2,5.3-7.6,7-12.8,9.6
				c-9.1,4.4-13.8,5.5-25.5,5.8C537.6,806.9,532.2,806.9,531.2,806.7L531.2,806.7z M-227,818.2c0-0.1,2.2-12,4.9-26.4
				s4.9-27,4.9-28.1c0-2.6-1.3-3.8-4.2-3.8c-2.4,0-5.5,2.7-5.5,4.8c0,1.5-6.6,14.5-9.7,19c-6.7,9.9-17.8,17.2-30.1,20
				c-11.5,2.6-43.9,2.6-53.6,0c-5.8-1.5-10.1-4.5-12-8.3c-1.5-2.9-1.5-4.7-1.7-70.9c-0.2-49.6,0-69,0.6-71.9
				c1.6-7.4,9-13.1,18.2-14.1c4.9-0.5,7.3-2,7.3-4.3c0-4.3,1-4.2-40.4-4.2c-40.1,0-39.8,0-39.8,3.4c0,2.4,2.1,3.7,7.4,4.7
				c8.4,1.5,13.2,6,15.4,14.7c1,3.9,1.2,13.4,1.1,71.2c0,72.2,0,72.4-4,78.4c-2.7,4.1-6.8,6.6-12.7,7.8c-2.8,0.6-5.5,1.5-6.1,2
				c-1.3,1.1-1.4,3.8-0.2,5.1c0.7,0.7,19.6,0.9,80.6,0.9C-262.9,818.4-227,818.3-227,818.2L-227,818.2z M61.7,817.3
				c1.4-1.7,0.6-4.4-1.5-5.4c-1-0.5-4.1-1.5-6.9-2.2c-6-1.5-10-3.9-12.8-7.8c-4.1-5.7-4.2-7.5-4.7-69.4c-0.2-31.3-0.6-61.5-0.9-67.1
				l-0.4-10.1l69.1,81.3l69.1,81.3l5.5,0.2l5.5,0.2l0.5-2.4c0.3-1.3,0.5-30.4,0.5-64.7s0.3-70.4,0.6-80.3
				c0.5-17.8,0.5-18.1,2.6-22.3c2.6-5.4,6.5-8.2,14.1-10.3c6.8-1.9,8.4-3.5,6.6-6.8c-0.7-1.4-1.9-1.5-32.2-1.5H145l-1.2,1.8
				c-1.6,2.5-0.4,4.7,3.2,5.6c1.5,0.4,4.3,1.1,6.2,1.6c5.1,1.3,8.6,3.4,11.2,6.5c4.5,5.4,4.5,5.8,5.7,59.8c0.6,27.2,1,52.3,0.9,55.8
				l-0.2,6.3l-58.5-68.7L53.8,630H27.4H1l-1.2,1.8c-0.9,1.4-1,2.2-0.4,3.4c1,1.8,3.1,3.1,5.1,3.1c3.1,0,9.3,2.4,11.8,4.6
				c5.4,4.8,5.2,0.6,4.4,80.4L20,794.8l-1.8,4c-2.4,5.3-7.3,9.6-12.8,11.1c-7.1,1.9-7.8,2.2-8.5,3.4c-0.4,0.7-0.5,2.1-0.3,3.2l0.5,2
				H29C55.8,818.4,60.9,818.2,61.7,817.3L61.7,817.3z M338.5,816.9c29.9-5.1,54.2-19.1,68.2-39.4c14.8-21.4,19.6-53.2,12.4-81.7
				c-6-23.8-21.1-42.3-43.8-53.6c-7-3.5-21.1-8-30.9-9.9c-8.2-1.6-10.9-1.6-63.6-1.9c-41.4-0.2-55.3-0.1-56.1,0.6
				c-1.2,1-1.4,3.5-0.4,5.1c0.4,0.6,2.9,1.5,5.8,2.1c9.7,2,14.2,6.1,16.4,15c1,4.1,1.2,12.9,1,73.6l-0.2,68.9l-2.3,4.4
				c-2.9,5.7-7.1,8.9-12.9,10.1c-5.8,1.1-8,2.3-8.3,4.4c-0.6,4-2.6,3.9,53.8,3.9C325.9,818.4,330.5,818.3,338.5,816.9z M297.1,805.6
				c-10.1-1.2-15.7-6.3-17.8-16.3c-1.2-5.5-1.2-132,0-136.3c1-3.6,4.9-7.5,8.7-8.7c1.5-0.5,9.4-1,17.6-1.2c11.5-0.3,16.4-0.1,22,0.9
				c22.1,3.8,38.8,13.5,49,28.4c20.1,29.4,17.1,84.6-6.2,110.4c-12.4,13.9-28.7,21.1-51,22.8C308.5,806.5,304.4,806.5,297.1,805.6
				L297.1,805.6z M711.8,817.5c2.2-2.2-0.2-6.6-3.7-6.6c-0.7,0-3.5-0.7-6.3-1.6c-6.5-2-10.9-6-13.2-11.8c-1.6-4.1-1.7-5.3-2.2-42.5
				c-0.3-21-0.6-51.9-0.6-68.5l-0.1-30.2l68.7,80.9l68.7,80.9l5.9,0.2l5.9,0.2l0.1-52.7c0-29,0.3-66.2,0.6-82.7
				c0.5-29.3,0.5-30.1,2.2-33.5c3-6.2,7-8.9,17.3-12c4.1-1.2,5.2-2.8,4-5.4l-0.9-1.9h-31.4c-23.4,0-31.6,0.2-32.3,0.9
				c-1.4,1.4-1.1,4.9,0.4,5.7c0.7,0.4,3.1,1.1,5.3,1.5c6.2,1.3,11.1,3.7,14,6.9c5.1,5.6,5,4.8,6.3,66.9c0.7,30.8,1.2,56.1,1.1,56.1
				c0,0-26.5-31-58.9-69l-58.8-69h-26.3c-19.5,0-26.5,0.2-27.2,0.9c-2.5,2.5,0.1,7.3,4,7.3c6.6,0,14.7,5.4,16.2,10.8
				c1.3,4.6,0.2,141.5-1.1,146.7c-2,7.7-7.4,12.6-16.1,14.6c-2.6,0.6-5.2,1.5-5.8,2c-1.3,1.1-1.4,3.8-0.2,5.1
				C648.9,818.8,710.5,818.8,711.8,817.5L711.8,817.5z M646,592.5c7.1-1,18-4.5,23-7.4c12.8-7.4,20.1-20.6,17.6-31.9
				c-2.5-11-12.1-19.5-35.1-31c-23.7-11.9-29.6-16.7-28.5-23c1.2-6.2,8.7-8.8,20.7-7.1c13.2,1.8,25.9,0.6,35-3.4
				c21.6-9.5,36.2-36.6,32.5-60.5c-1.1-7-0.7-8.6,2.6-10c3.8-1.6,6.8-1.3,13.1,1.2c6.4,2.5,8.2,2.7,11.3,1.1
				c2.8-1.4,4.5-4.7,4.5-8.4c0-5.2-3.5-7.7-10.7-7.7c-5.9,0-11.3,1.5-18.5,5.3c-3.1,1.6-5.9,2.9-6.4,2.9s-2.2-0.7-3.8-1.6
				c-11.9-6.4-28.2-6.8-42.6-1c-10.2,4.1-20.5,12.4-27.3,21.8c-10.6,14.8-12.5,32.1-5,46.1c1,1.9,1.6,3.9,1.4,4.3
				c-0.3,0.4-3.8,1.8-7.8,3c-8.4,2.6-13,5.2-16.9,9.8c-7.5,8.7-4.6,20,7.3,29.1c1.2,0.9,2,1.8,1.9,1.9c-0.2,0.1-3.7,1.4-7.8,2.7
				c-23.2,7.6-35.6,18.9-35.6,32.3C570.9,583.6,605.6,598.1,646,592.5L646,592.5z M617.9,581.7c-6.6-1.3-13.7-4.6-17.8-8.3
				c-8.6-7.7-7.9-18.7,1.7-27.8c4.5-4.3,8.8-6.9,16.9-10.4l5.7-2.5l12.5,6.5c20.4,10.5,25.4,15.2,25.4,23.7
				c0,9.7-7.7,16.8-21.3,19.3C636,583.2,624,582.9,617.9,581.7L617.9,581.7z M647.9,480.8c-8.8-7-5.7-27.6,7-46.6
				c7.2-10.7,15.9-17.7,23.9-19.2c7-1.3,11.2,0.4,13.6,5.5c1.5,3,1.6,4.1,1.1,9.1c-1.4,15.2-9.5,31.9-21,43.5
				c-5.9,5.9-11.2,8.6-17.7,9.1C650.7,482.5,649.8,482.3,647.9,480.8z M162.9,550.1c1.9-1.6,20.4-54.7,20.4-58.5
				c0-1.9-0.4-2.7-1.8-3.3c-3.2-1.5-6.1,0.4-10.3,6.8c-14.9,22.3-47.4,39.8-73.9,39.8c-13.6,0-22.1-4.9-27.4-15.9
				c-3.4-7-4.4-13.7-4-27.3c0.7-19.6,4.6-34.1,14.7-54.8c9.8-19.9,19.2-33.1,33.2-46.6c15.7-15.1,31.2-22.8,46-22.8
				c11.3,0,21.8,4.1,28.2,11.1c7.5,8.2,10.4,17.1,10.4,31.5c0,7.3,0.2,9.3,1.2,10.3c1.6,1.6,5.8,1.5,7.2-0.1
				c1.8-2.1,16.5-51.3,16.2-54.3c-0.2-2.2-0.5-2.6-2.6-2.8c-2.1-0.2-2.7,0.3-5.8,4.3c-4.2,5.5-6.9,7.7-8.6,7.1
				c-0.7-0.2-3.1-2.2-5.4-4.3c-14.1-13.2-30.9-17.6-53.9-14.2c-32.4,4.8-63.4,26.2-85.2,58.8c-14,21-21.9,43.3-23.6,66.9
				c-2.8,39.1,16,63.6,50.9,66.3c13.1,1,28.1-2,47.5-9.5c5.4-2.1,11.3-4,13-4.2c2.7-0.3,3.3-0.1,4.3,1.5c0.7,1.1,1.4,4.3,1.7,7.3
				C155.9,550.7,158.9,553.4,162.9,550.1L162.9,550.1z M347.8,545.6c11.1-3.5,21-9.6,30.2-18.7c5.4-5.3,6.2-6.5,6.2-8.7
				c0-3.1-1.5-4.6-3.9-3.9c-0.9,0.3-4.6,2.8-8.1,5.6c-7.5,5.9-14.9,10.5-16.8,10.5c-1.1,0-1.3-0.4-1-2.1
				c0.2-1.1,16.3-38.8,35.8-83.8c24.7-56.9,35.6-82.8,35.8-85.3c0.3-3.3,0.3-3.6-1.7-4c-2-0.5-21.9,0.6-34.1,2
				c-6.8,0.7-9.1,2-9.1,4.9c0,2.6,1.5,3.3,8.7,4.2c7.2,0.9,9.3,1.6,9.3,3.3c0,0.6-7.2,17.7-16,38c-32,73.7-52.1,121.3-53.5,126.5
				C326.7,545.3,334,549.9,347.8,545.6L347.8,545.6z M421.3,545.3c11.1-3.6,26.2-13.7,32.7-21.8c3.1-4,3.8-7.2,1.9-8.8
				c-1.6-1.3-3.9-0.3-9.6,4.2c-6.5,5.2-16.4,11.5-18,11.5c-0.8,0-1.3-0.6-1.3-1.5c0-0.8,16.2-38.9,36-84.6
				c21.1-48.9,36-84.1,36-85.4c0-4.1-0.8-4.3-16.4-3.3c-25.9,1.7-28.6,2.4-28.6,6.5c0,2.6,1.5,3.3,8.7,4.2c7.2,0.9,9.3,1.6,9.3,3.3
				c0,0.6-3.1,8.1-6.8,16.7c-25.9,59.3-61.6,143.1-62.8,147.6c-1.3,4.8-1,7.5,1.1,10.1C406.7,547.8,412.2,548.3,421.3,545.3
				L421.3,545.3z M260.1,544.7c16.8-4.3,32.3-16.5,44.8-35.3c19.7-29.6,26.3-66.8,15.5-88.2c-3-6.1-5.8-9.3-10.6-12.5
				c-7-4.6-14.4-6.1-24.3-5c-14.6,1.6-27.9,8.8-40.6,21.9c-15.9,16.5-26.4,38.5-30.1,63.3c-1.4,9.1-1,23.9,0.7,30.6
				c3.3,12.9,11.3,22.2,22.1,25.6C242.3,546.6,253.3,546.4,260.1,544.7L260.1,544.7z M242.5,533.4c-3.8-0.9-6.2-3-8.3-7.2
				c-1.7-3.3-1.9-4.6-1.8-11.6c0.2-17.5,6.7-38.3,18.8-60.2c6.3-11.3,12.3-19.5,20.4-27.5c15.1-15,28.8-16,33.8-2.5
				c4.4,11.8-0.9,35.9-13.4,61.4C276.1,518,256.7,536.7,242.5,533.4L242.5,533.4z M530.8,543.9c11.2-3.5,21.3-10.2,30.7-20.4
				c7.1-7.7,8.6-10.6,7.1-13.3c-2-3.6-4.6-3-10.3,2.4c-5.4,5.1-12.3,10.6-16.6,13.2c-7.7,4.6-19.7,6.1-25.5,3.2
				c-10.6-5.4-12.8-21.1-5.6-40.3l2-5.4l4.2-0.8c40.9-8.1,60.2-16.1,73-29.9c5.7-6.1,8.6-11.8,10.2-19.7c1.1-5.3,1-6.3-0.1-10.9
				c-1.6-6.5-3.9-9.4-9.7-12.2c-14.3-7-36.5-1.1-58.6,15.4c-7.3,5.5-20.2,18.6-26.2,26.6c-13.3,17.8-21.4,37.7-23,56.5
				c-1.7,19.6,4.6,31.2,19.8,36.6C507.7,546.8,523.4,546.3,530.8,543.9L530.8,543.9z M520.8,466.9c7.7-13.9,17.3-26.6,27.5-36.3
				c8.2-7.8,14.3-11.2,20.9-11.7c5.9-0.5,8,0.7,10.2,5.6c1.2,2.7,1.4,4.2,1,7.9c-1.4,12.5-12.5,24.3-28.3,30.2
				c-6.1,2.3-25.2,7.5-30.1,8.3l-3.6,0.5L520.8,466.9z M763.4,545.3c6.7-1.2,15.3-4.8,21.8-9c6-3.9,15.6-13,19.7-18.6
				c3.9-5.4,2.9-9.8-2.1-9.8c-1,0-3.8,2.1-7.1,5.3c-7.4,7.2-12.5,10.9-19.2,14.1c-5.3,2.6-6,2.7-13.2,2.7c-6.9,0-7.8-0.2-10.5-2
				c-1.8-1.2-3.9-3.6-5.2-6c-2.2-3.9-2.2-4.4-2.2-13.4c0-9.7,0.8-13.9,4.3-21.9c1.5-3.4,1.7-3.6,5.7-4.4c12.3-2.4,28.5-6.5,36.5-9
				c30.6-9.9,46.9-25.9,46.9-46.2c0-6.4-1.2-10-4.7-13.7c-7.5-7.8-21.5-8.8-38.6-2.7c-24.8,8.9-51,34.2-64.4,62.2
				c-6.4,13.4-9.5,24.5-10.5,37.6c-1.3,17.4,6.2,30.2,20.1,34.5C744.6,546.3,757.4,546.4,763.4,545.3L763.4,545.3z M759.5,466.2
				c10.4-18.9,27.3-38.4,38.6-44.4c8.7-4.6,16.4-4,19.2,1.5c1.6,3.1,1.4,11.1-0.4,15.8c-3,8-12.3,17.2-21.5,21.3
				c-7.4,3.3-27.3,9.2-35.4,10.5l-3.3,0.5L759.5,466.2z M-324.5,543.5c33.2-0.3,67.7-0.1,79.1,0.3c23.1,0.8,24.4,0.6,25.8-3.9
				c0.7-2.2,0.7-3.1-0.3-5.3c-1.5-3.2-3-3.8-13.7-5.7c-28.2-5-43.5-16.3-48.8-36c-2.1-7.8-2.9-16.1-3.9-44.6
				c-1-27.5-0.4-97.1,0.9-101.8c0.9-3.2,3.8-5.9,6.6-5.8c4.9,0,8.6,2.9,24.1,18.6c21.5,21.7,47.4,50.8,91.6,102.7
				c10.4,12.3,19.3,22.7,19.8,23.2s11.7,14,25.1,30.2l24.4,29.4l58.2-0.2c56.1-0.2,58.3-0.2,59.8-1.6c1.7-1.6,2.2-6.2,0.8-8.7
				c-1.2-2.3-3-2.9-12-4.1c-18.6-2.6-34.4-10.2-53.6-25.9c-10.8-8.8-37.9-37.9-78.1-84c-28.6-32.8-104.6-122.2-105.1-123.6
				c-0.3-1,31-33.4,61-63.2c37.1-36.8,63-61.2,79.4-74.9c26.8-22.3,44.1-32.6,64.5-38.1c11-3,13.7-6,10.5-12.1
				c-2-3.8-3.5-3.9-39.7-3.2c-19.9,0.4-47.2,0.4-68.6,0c-19.6-0.4-36.7-0.5-38-0.2c-3.1,0.6-6.2,4.3-6.2,7.2c0,3.8,3.3,6.3,10.2,7.7
				c26.4,5.5,31.2,9,29.5,21.4c-0.9,6.5-4.4,13.4-13,25.1c-15.1,20.7-25.3,31.9-71.4,78c-49.9,49.9-73,71.6-76.4,71.6
				c-3.8,0-3.7,0.8-3.5-47.2c0.4-69,1.3-108.9,2.6-115.4c3.7-17.9,17.5-28.4,43.5-33.2c11.4-2.1,13-2.7,14.3-5.2
				c1.3-2.6,1.4-5.9,0.2-7.5c-2.2-2.9-3-2.9-38.5-2.2c-23.3,0.5-49.8,0.5-82.3,0c-26.4-0.4-48.6-0.6-49.5-0.3c-2.8,0.8-5,3.4-5,5.9
				c0,4.5,2.7,6.4,10.5,7.5c20.2,2.9,32.5,12.4,38.2,29.4c5.2,15.6,4.9,4.1,4.9,172.3c0,162.1,0,161.7-3.8,175.9
				c-2.5,9.6-5.5,15.3-10.8,21.1c-6.6,7.2-15,11.1-28.6,13.4c-7,1.2-9.3,2.3-10.5,5.3c-0.8,2-0.8,2.7,0.2,4.9
				c1.5,3.2,4.4,4.2,11.4,3.7C-385.8,544.1-356.9,543.7-324.5,543.5L-324.5,543.5z M542.8,322.2c14.5-2,30.1-6.8,42.8-13.3
				c7.8-4,21.6-12.8,23.8-15.2c1.1-1.2,1.3-4.1,1.5-24.6c0.2-21.7,0.3-23.5,1.8-26.6c3-6.5,8.8-9.8,19.3-10.9
				c5.5-0.6,7.3-1.9,7.3-5.3c0-5,1.8-4.8-50.4-4.6c-44.9,0.2-47,0.3-48.5,1.6c-2.1,1.9-2,4.6,0.1,6.7c1.4,1.4,3.1,1.9,9.2,2.6
				c10.5,1.2,16.6,3.2,20.7,6.9c5.3,4.7,5.8,6.9,5.8,27.3c0,10.1-0.3,18.5-0.8,20.2c-2,7.2-15,15.8-29.8,19.8c-6.6,1.8-8.6,2-22.3,2
				c-16.1,0.1-21.1-0.7-32-5.1c-24.4-9.9-41.1-32.1-47.8-64c-2-9.6-2.8-29.2-1.5-40c1.7-14.6,6.4-29.9,12.3-40.1
				c11.7-20.5,29.1-34.1,50.7-39.9c9.9-2.7,26.8-3.3,38.7-1.4c29,4.5,50.9,19.9,63.4,44.5c3.6,7.2,7.8,9.5,10.9,6
				c1.3-1.5,1.4-3.2,1.6-26.8c0.2-28.1,0.1-28.8-4.2-29.2c-3.2-0.3-4.2,0.6-5.9,5.2c-0.7,2.1-2.2,4.6-3.2,5.6
				c-3.1,3.1-5.8,2.5-16.4-3.6c-20.8-11.9-34.2-15.8-57.6-16.9c-30.5-1.3-61,6.7-84.4,22.3c-8.8,5.8-21.6,18.4-27,26.5
				c-4.4,6.6-9.5,17-12,24.4c-7.7,23.1-7.4,56,0.8,79.3c7.3,21,19.6,36.7,37.8,48.4C472.5,320.1,508.2,326.9,542.8,322.2
				L542.8,322.2z M800.8,321.5c27.2-5.6,44.6-20.7,50.7-43.7c2.2-8.4,2.7-24.1,1.1-32.4c-3.2-15.8-11.6-28-26.5-38.3
				c-8.2-5.7-17.7-9.8-36.5-16.1c-25.9-8.6-37.1-14.9-44-24.8c-5.3-7.6-6.8-20.1-3.7-29.4c3-9,11.6-15.9,23-18.6
				c10.3-2.4,25.7-0.5,35.1,4.4c8.6,4.5,18.6,15.2,25.2,27.4c3.8,7,7.4,8.7,9.6,4.6c1-1.8-5.7-49.7-7.3-52.2c-1.3-2-4.1-2.2-5.7-0.4
				c-0.6,0.7-1.9,2.7-2.9,4.5c-2.8,5.2-5.9,5.6-16.1,2c-22.2-7.8-44.1-7-63.8,2.3c-19.6,9.3-29.6,24.8-29.6,45.8
				c0,18.4,7.4,33.8,21.7,44.9c9.4,7.4,21.7,13.3,43.1,20.7c35.8,12.4,47.1,23.5,47.1,46.2c0,12.2-3.3,20.9-10.9,28.3
				c-9.3,9.1-24.5,13.5-41.5,11.9c-27.2-2.6-46.4-18.1-55.1-44.5c-2.1-6.4-3.1-7.4-7.1-7.2c-5,0.4-5,0.3-5,31.4
				c0,22.9,0.2,27.7,1.1,29c2.6,3.7,6.1,2.6,9.7-3c4.6-7.2,6.5-7.3,19.8-1.5c11.8,5.2,16,6.7,24.2,8.7
				C768.7,324.1,787.8,324.2,800.8,321.5L800.8,321.5z M107,321.9c2.3-0.9,3-2.3,2.4-4.8c-0.5-2-2.4-2.9-8.8-4.2
				c-2.3-0.5-6-1.9-8.2-3.3c-3.2-1.9-4.5-3.3-6.3-6.9l-2.3-4.4l-0.2-83.2c-0.2-90.2-0.3-87.4,3.8-93.5c2.5-3.7,8.7-7.1,14.7-8.2
				c5.5-1,7.7-2.3,7.7-5c0-4.2,1.2-4.1-44.2-4.1c-43.3,0-43.9,0-44.4,3c-0.3,1.9,0.8,4.4,2.2,4.8c0.7,0.2,3.6,0.9,6.5,1.6
				c9.9,2.2,14.2,6.3,16.5,15.1c1,4.1,1.1,14.2,1,86.6l-0.2,82l-1.8,3.9c-3.1,6.9-7.8,10-18.5,12.3c-3.4,0.7-4.7,1.4-5.4,2.7
				c-1.1,2.3-0.6,4.3,1.5,5.2C25.1,322.8,104.3,322.9,107,321.9L107,321.9z M213.6,320.8c1.4-2.2,0.9-5.3-1-6.3
				c-0.7-0.4-3.5-1.1-6.1-1.6c-12.5-2.4-18.2-8.5-20.7-22.3c-1.5-8-2.5-43.4-3.1-101.5c-0.3-33.4-0.2-48.1,0.3-47.6
				c0.4,0.4,37.1,41.2,81.5,90.8l80.7,90l5.4,0.2l5.4,0.2l0.5-72.2c0.6-78.6,1.3-112.5,2.7-119.4c2.1-10.5,6.6-15.1,17.3-17.6
				c7.8-1.8,10-4.3,6.9-7.7c-1.2-1.3-3.3-1.4-37-1.4c-38.9,0-37.7-0.1-37.7,4.1c0,2.6,1.4,4,4.6,4.5c6.5,1.1,12.6,3.4,15.5,5.9
				c6.7,5.7,9,13.8,10.1,35.4c0.8,15.5,2.6,104.1,2.1,105.5c-0.2,0.5-31.6-34.3-70-77.2l-69.7-78.1h-29.4c-31.9,0-31.8,0-31.8,4.1
				c0,2.5,2.1,4,6.9,4.8c9.1,1.7,15.5,6,18.3,12.5c1.2,2.8,1.3,6.5,1.2,50.6c-0.2,53.9-1.3,106.9-2.5,115.9
				c-1,7.9-3.9,14.2-7.6,16.9c-3.2,2.3-5.5,3.2-12,4.4c-3.2,0.6-4.7,1.3-5.5,2.6c-1.4,2.2-0.8,4.4,1.4,5.4
				c1.1,0.5,13.4,0.8,36.7,0.9l35,0.1L213.6,320.8L213.6,320.8z M663.1,163.7c9.3-2.9,16.9-9.6,21.4-19.1c3.2-6.7,4.1-10.6,4.1-17.8
				c0-7-1.5-12.4-4.7-16.6c-8.7-11.4-29.7-8.9-34,4c-2.5,7.6-0.2,15.6,5.6,19.7c2.6,1.8,4.1,2.3,8.4,2.5c4.7,0.3,5.6,0.1,8.2-1.7
				l3-2v2.9c0,6.4-6.8,15.2-15.1,19.3c-7,3.5-8.7,5.9-6.2,8.7C655.5,165.5,657.4,165.5,663.1,163.7L663.1,163.7z"/>
		</g>
	</g>
</g>
</svg>
