<?xml version="1.0" encoding="utf-8"?>
<!-- Generator: Adobe Illustrator 23.0.4, SVG Export Plug-In . SVG Version: 6.00 Build 0)  -->
<svg version="1.1"
	 id="svg8" sodipodi:docname="drawing-2.svg" xmlns:cc="http://creativecommons.org/ns#" xmlns:dc="http://purl.org/dc/elements/1.1/" xmlns:inkscape="http://www.inkscape.org/namespaces/inkscape" xmlns:rdf="http://www.w3.org/1999/02/22-rdf-syntax-ns#" xmlns:sodipodi="http://sodipodi.sourceforge.net/DTD/sodipodi-0.dtd" xmlns:svg="http://www.w3.org/2000/svg"
	 xmlns="http://www.w3.org/2000/svg" xmlns:xlink="http://www.w3.org/1999/xlink" x="0px" y="0px" viewBox="0 0 236.3 180"
	 style="enable-background:new 0 0 236.3 180;" xml:space="preserve">
<style type="text/css">
	.st0{fill:#E2231A;}
</style>
<g id="layer1" transform="translate(-37.255657,-121.48674)" inkscape:groupmode="layer" inkscape:label="Layer 1">
	<g id="g1027">
		<g id="layer1-0" transform="matrix(0.44590806,0,0,0.44590806,306.04762,165.56674)" inkscape:label="Layer 1">
			
				<image style="overflow:visible;enable-background:new    ;" width="925" height="705" id="image928" xlink:href="FF341128DA1C2441.jpeg"  transform="matrix(0.5729 0 0 0.4379 -602.7841 -51.3421)">
			</image>
			<path id="path911" inkscape:connector-curvature="0" class="st0" d="M-602.8,103V-98.9h265h265V103v201.8h-265h-265V103z
				 M-142.5,239.7l-0.1-5.1h-195.3h-195.3l-0.1,4.8c0,2.6,0,4.9,0.1,5.1c0.1,0.3,37.1,0.3,195.5,0.3h195.3L-142.5,239.7z
				 M-142.6,219v-2.6h-195.3h-195.3l-0.1,2.4c0,1.3,0,2.5,0.1,2.7c0.1,0.3,33.7,0.3,195.4,0.3l195.3-0.1L-142.6,219L-142.6,219z
				 M-440.3,195.1c6.8-0.9,12.5-3.7,16.9-8.1c3.3-3.3,5.4-6.8,6.9-11.3c3-9.2,2.1-19.5-2.2-26.9c-4.3-7.3-11-12.1-19.6-14
				c-3.3-0.7-9.6-0.8-12.7-0.1c-7.8,1.6-13.8,5.4-18.3,11.5c-2.7,3.6-4.3,7.3-5.3,12c-0.7,3.5-0.7,8.8,0,12.7
				c1.3,6.5,3.6,11.2,7.7,15.7c4,4.4,10.4,7.6,16.9,8.5C-447.9,195.4-442.5,195.4-440.3,195.1L-440.3,195.1z M-448.5,191
				c-7.1-1.6-12.8-7.8-15-16.5c-1.6-6.2-1.6-14.4,0-20.6c2-7.4,6.7-12.9,12.8-15c1.7-0.6,2.3-0.6,5.4-0.6c3.2,0,3.6,0,5.4,0.6
				c8,2.8,13.2,10.4,14.5,21.2c0.8,6.3-0.4,15.5-2.7,20.2c-2.5,5.4-6.3,8.8-11.4,10.3C-441,191.1-447,191.3-448.5,191L-448.5,191z
				 M-231.9,195.1c3.2-0.4,6.5-1.4,9.2-2.8c4.1-2,6.6-3.9,9.3-7.1c4.5-5.5,6.7-11.6,7-19.5c0.4-9.3-2.7-17.2-8.9-23.3
				c-8.5-8.4-23.1-10.7-34.4-5.3c-3.2,1.5-5.7,3.3-8,5.5c-4.5,4.4-7.2,9.5-8.5,15.8c-0.6,3-0.6,9.6,0.1,12.9
				c1.1,5.2,2.8,9.2,5.7,12.9c4.3,5.8,10.9,9.6,18.5,10.8C-239.6,195.4-234.2,195.4-231.9,195.1L-231.9,195.1z M-239.7,191.1
				c-8.4-1.6-14.4-9.1-16.2-20.4c-0.5-3.1-0.6-9.3-0.1-12.2c1.6-10.5,6.5-17.2,14.2-19.6c2.4-0.7,7.5-0.8,9.7-0.1
				c10.3,3.2,16.4,14.8,15.3,29.3c-0.7,8.8-2.6,14-6.8,18.2c-1.7,1.7-2.4,2.2-4.1,3.1c-2.9,1.4-4.4,1.8-8.2,1.9
				C-237.7,191.2-239.4,191.2-239.7,191.1L-239.7,191.1z M-482.5,194.8c0,0,0.7-3.8,1.6-8.5s1.6-8.6,1.6-9c0-0.8-0.4-1.2-1.3-1.2
				c-0.8,0-1.8,0.9-1.8,1.5c0,0.5-2.1,4.6-3.1,6.1c-2.1,3.2-5.7,5.5-9.6,6.4c-3.7,0.8-14.1,0.8-17.2,0c-1.9-0.5-3.2-1.4-3.8-2.7
				c-0.5-0.9-0.5-1.5-0.5-22.7c-0.1-15.9,0-22.1,0.2-23c0.5-2.4,2.9-4.2,5.8-4.5c1.6-0.2,2.3-0.6,2.3-1.4c0-1.4,0.3-1.3-12.9-1.3
				c-12.8,0-12.7,0-12.7,1.1c0,0.8,0.7,1.2,2.4,1.5c2.7,0.5,4.2,1.9,4.9,4.7c0.3,1.2,0.4,4.3,0.4,22.8c0,23.1,0,23.2-1.3,25.1
				c-0.9,1.3-2.2,2.1-4.1,2.5c-0.9,0.2-1.8,0.5-2,0.6c-0.4,0.4-0.4,1.2-0.1,1.6c0.2,0.2,6.3,0.3,25.8,0.3
				C-494,194.8-482.5,194.8-482.5,194.8L-482.5,194.8z M-390,194.5c0.4-0.5,0.2-1.4-0.5-1.7c-0.3-0.2-1.3-0.5-2.2-0.7
				c-1.9-0.5-3.2-1.2-4.1-2.5c-1.3-1.8-1.3-2.4-1.5-22.2c-0.1-10-0.2-19.7-0.3-21.5l-0.1-3.2l22.1,26l22.1,26l1.8,0.1l1.8,0.1
				l0.2-0.8c0.1-0.4,0.2-9.7,0.2-20.7c0-11,0.1-22.5,0.2-25.7c0.2-5.7,0.2-5.8,0.8-7.1c0.8-1.7,2.1-2.6,4.5-3.3
				c2.2-0.6,2.7-1.1,2.1-2.2c-0.2-0.4-0.6-0.5-10.3-0.5h-10.1l-0.4,0.6c-0.5,0.8-0.1,1.5,1,1.8c0.5,0.1,1.4,0.4,2,0.5
				c1.6,0.4,2.8,1.1,3.6,2.1c1.4,1.7,1.4,1.9,1.8,19.1c0.2,8.7,0.3,16.7,0.3,17.9l-0.1,2l-18.7-22l-18.7-22h-8.5h-8.5l-0.4,0.6
				c-0.3,0.4-0.3,0.7-0.1,1.1c0.3,0.6,1,1,1.6,1c1,0,3,0.8,3.8,1.5c1.7,1.5,1.7,0.2,1.4,25.7l-0.2,22.9l-0.6,1.3
				c-0.8,1.7-2.3,3.1-4.1,3.6c-2.3,0.6-2.5,0.7-2.7,1.1c-0.1,0.2-0.2,0.7-0.1,1l0.2,0.6h10.2C-391.9,194.8-390.3,194.8-390,194.5
				L-390,194.5z M-301.4,194.4c9.6-1.6,17.4-6.1,21.8-12.6c4.7-6.9,6.3-17,4-26.2c-1.9-7.6-6.8-13.5-14-17.2
				c-2.2-1.1-6.8-2.6-9.9-3.2c-2.6-0.5-3.5-0.5-20.4-0.6c-13.3-0.1-17.7,0-18,0.2c-0.4,0.3-0.4,1.1-0.1,1.6c0.1,0.2,0.9,0.5,1.9,0.7
				c3.1,0.6,4.5,2,5.3,4.8c0.3,1.3,0.4,4.1,0.3,23.6l-0.1,22.1l-0.7,1.4c-0.9,1.8-2.3,2.8-4.1,3.2c-1.9,0.4-2.6,0.7-2.7,1.4
				c-0.2,1.3-0.8,1.2,17.2,1.2C-305.5,194.8-304,194.8-301.4,194.4z M-314.7,190.7c-3.2-0.4-5-2-5.7-5.2c-0.4-1.8-0.4-42.3,0-43.6
				c0.3-1.2,1.6-2.4,2.8-2.8c0.5-0.2,3-0.3,5.6-0.4c3.7-0.1,5.3,0,7,0.3c7.1,1.2,12.4,4.3,15.7,9.1c6.4,9.4,5.5,27.1-2,35.3
				c-4,4.5-9.2,6.8-16.3,7.3C-311,191-312.3,191-314.7,190.7L-314.7,190.7z M-181.9,194.5c0.7-0.7-0.1-2.1-1.2-2.1
				c-0.2,0-1.1-0.2-2-0.5c-2.1-0.6-3.5-1.9-4.2-3.8c-0.5-1.3-0.5-1.7-0.7-13.6c-0.1-6.7-0.2-16.6-0.2-21.9l0-9.7l22,25.9l22,25.9
				l1.9,0.1l1.9,0.1l0-16.9c0-9.3,0.1-21.2,0.2-26.5c0.2-9.4,0.2-9.6,0.7-10.7c1-2,2.2-2.8,5.5-3.8c1.3-0.4,1.7-0.9,1.3-1.7
				l-0.3-0.6h-10.1c-7.5,0-10.1,0.1-10.3,0.3c-0.4,0.4-0.4,1.6,0.1,1.8c0.2,0.1,1,0.4,1.7,0.5c2,0.4,3.6,1.2,4.5,2.2
				c1.6,1.8,1.6,1.5,2,21.4c0.2,9.9,0.4,18,0.4,18c0,0-8.5-9.9-18.9-22.1l-18.8-22.1h-8.4c-6.2,0-8.5,0.1-8.7,0.3
				c-0.8,0.8,0,2.3,1.3,2.3c2.1,0,4.7,1.7,5.2,3.5c0.4,1.5,0.1,45.3-0.4,47c-0.6,2.5-2.4,4-5.2,4.7c-0.8,0.2-1.7,0.5-1.9,0.6
				c-0.4,0.4-0.4,1.2-0.1,1.6C-202,195-182.3,195-181.9,194.5L-181.9,194.5z M-203,122.5c2.3-0.3,5.8-1.4,7.4-2.4
				c4.1-2.4,6.4-6.6,5.6-10.2c-0.8-3.5-3.9-6.2-11.2-9.9c-7.6-3.8-9.5-5.3-9.1-7.4c0.4-2,2.8-2.8,6.6-2.3c4.2,0.6,8.3,0.2,11.2-1.1
				c6.9-3,11.6-11.7,10.4-19.4c-0.4-2.2-0.2-2.8,0.8-3.2c1.2-0.5,2.2-0.4,4.2,0.4c2,0.8,2.6,0.9,3.6,0.4c0.9-0.4,1.4-1.5,1.4-2.7
				c0-1.7-1.1-2.5-3.4-2.5c-1.9,0-3.6,0.5-5.9,1.7c-1,0.5-1.9,0.9-2,0.9c-0.2,0-0.7-0.2-1.2-0.5c-3.8-2-9-2.2-13.6-0.3
				c-3.3,1.3-6.6,4-8.7,7c-3.4,4.7-4,10.3-1.6,14.8c0.3,0.6,0.5,1.2,0.4,1.4c-0.1,0.1-1.2,0.6-2.5,1c-2.7,0.8-4.2,1.7-5.4,3.1
				c-2.4,2.8-1.5,6.4,2.3,9.3c0.4,0.3,0.6,0.6,0.6,0.6c-0.1,0-1.2,0.4-2.5,0.9c-7.4,2.4-11.4,6.1-11.4,10.3
				C-227,119.7-215.9,124.3-203,122.5L-203,122.5z M-212,119.1c-2.1-0.4-4.4-1.5-5.7-2.7c-2.8-2.5-2.5-6,0.5-8.9
				c1.4-1.4,2.8-2.2,5.4-3.3l1.8-0.8l4,2.1c6.5,3.4,8.1,4.9,8.1,7.6c0,3.1-2.5,5.4-6.8,6.2C-206.2,119.5-210,119.4-212,119.1
				L-212,119.1z M-202.4,86.7c-2.8-2.2-1.8-8.8,2.2-14.9c2.3-3.4,5.1-5.7,7.7-6.1c2.2-0.4,3.6,0.1,4.4,1.8c0.5,1,0.5,1.3,0.4,2.9
				c-0.4,4.9-3,10.2-6.7,13.9c-1.9,1.9-3.6,2.8-5.7,2.9C-201.5,87.3-201.8,87.2-202.4,86.7z M-357.6,108.9
				c0.6-0.5,6.5-17.5,6.5-18.7c0-0.6-0.1-0.9-0.6-1.1c-1-0.5-2,0.1-3.3,2.2c-4.8,7.1-15.2,12.7-23.7,12.7c-4.4,0-7.1-1.6-8.8-5.1
				c-1.1-2.2-1.4-4.4-1.3-8.7c0.2-6.3,1.5-10.9,4.7-17.5c3.1-6.4,6.1-10.6,10.6-14.9c5-4.8,10-7.3,14.7-7.3c3.6,0,7,1.3,9,3.6
				c2.4,2.6,3.3,5.5,3.3,10.1c0,2.3,0.1,3,0.4,3.3c0.5,0.5,1.9,0.5,2.3,0c0.6-0.7,5.3-16.4,5.2-17.4c-0.1-0.7-0.2-0.8-0.8-0.9
				c-0.7-0.1-0.9,0.1-1.9,1.4c-1.3,1.8-2.2,2.5-2.8,2.3c-0.2-0.1-1-0.7-1.7-1.4c-4.5-4.2-9.9-5.6-17.3-4.5
				c-10.4,1.5-20.3,8.4-27.3,18.8c-4.5,6.7-7,13.9-7.6,21.4c-0.9,12.5,5.1,20.4,16.3,21.2c4.2,0.3,9-0.6,15.2-3
				c1.7-0.7,3.6-1.3,4.2-1.3c0.9-0.1,1.1,0,1.4,0.5c0.2,0.4,0.4,1.4,0.5,2.3C-359.9,109.1-358.9,110-357.6,108.9L-357.6,108.9z
				 M-298.4,107.5c3.6-1.1,6.7-3.1,9.7-6c1.7-1.7,2-2.1,2-2.8c0-1-0.5-1.5-1.2-1.2c-0.3,0.1-1.5,0.9-2.6,1.8
				c-2.4,1.9-4.8,3.4-5.4,3.4c-0.4,0-0.4-0.1-0.3-0.7c0.1-0.4,5.2-12.4,11.5-26.8c7.9-18.2,11.4-26.5,11.5-27.3
				c0.1-1.1,0.1-1.2-0.5-1.3c-0.6-0.2-7,0.2-10.9,0.6c-2.2,0.2-2.9,0.6-2.9,1.6c0,0.8,0.5,1.1,2.8,1.3c2.3,0.3,3,0.5,3,1.1
				c0,0.2-2.3,5.7-5.1,12.2c-10.2,23.6-16.7,38.8-17.1,40.5C-305.2,107.4-302.9,108.9-298.4,107.5L-298.4,107.5z M-274.9,107.4
				c3.6-1.2,8.4-4.4,10.5-7c1-1.3,1.2-2.3,0.6-2.8c-0.5-0.4-1.2-0.1-3.1,1.3c-2.1,1.7-5.3,3.7-5.8,3.7c-0.3,0-0.4-0.2-0.4-0.5
				c0-0.3,5.2-12.5,11.5-27.1c6.8-15.7,11.5-26.9,11.5-27.3c0-1.3-0.3-1.4-5.3-1.1c-8.3,0.5-9.2,0.8-9.2,2.1c0,0.8,0.5,1.1,2.8,1.3
				c2.3,0.3,3,0.5,3,1.1c0,0.2-1,2.6-2.2,5.3c-8.3,19-19.7,45.8-20.1,47.3c-0.4,1.5-0.3,2.4,0.4,3.2
				C-279.6,108.2-277.8,108.4-274.9,107.4L-274.9,107.4z M-326.5,107.2c5.4-1.4,10.3-5.3,14.3-11.3c6.3-9.5,8.4-21.4,5-28.2
				c-1-2-1.9-3-3.4-4c-2.2-1.5-4.6-2-7.8-1.6c-4.7,0.5-8.9,2.8-13,7c-5.1,5.3-8.5,12.3-9.6,20.3c-0.4,2.9-0.3,7.7,0.2,9.8
				c1.1,4.1,3.6,7.1,7.1,8.2C-332.2,107.8-328.7,107.8-326.5,107.2L-326.5,107.2z M-332.2,103.6c-1.2-0.3-2-1-2.7-2.3
				c-0.5-1.1-0.6-1.5-0.6-3.7c0.1-5.6,2.1-12.3,6-19.3c2-3.6,3.9-6.2,6.5-8.8c4.8-4.8,9.2-5.1,10.8-0.8c1.4,3.8-0.3,11.5-4.3,19.7
				C-321.4,98.7-327.6,104.6-332.2,103.6L-332.2,103.6z M-239.9,107c3.6-1.1,6.8-3.3,9.8-6.5c2.3-2.5,2.8-3.4,2.3-4.3
				c-0.6-1.2-1.5-1-3.3,0.8c-1.7,1.6-3.9,3.4-5.3,4.2c-2.5,1.5-6.3,2-8.2,1c-3.4-1.7-4.1-6.8-1.8-12.9l0.6-1.7l1.3-0.3
				c13.1-2.6,19.3-5.2,23.4-9.6c1.8-2,2.8-3.8,3.3-6.3c0.4-1.7,0.3-2,0-3.5c-0.5-2.1-1.2-3-3.1-3.9c-4.6-2.2-11.7-0.4-18.8,4.9
				c-2.3,1.8-6.5,6-8.4,8.5c-4.3,5.7-6.9,12.1-7.4,18.1c-0.5,6.3,1.5,10,6.3,11.7C-247.2,107.9-242.2,107.7-239.9,107L-239.9,107z
				 M-243.1,82.3c2.5-4.5,5.5-8.5,8.8-11.6c2.6-2.5,4.6-3.6,6.7-3.7c1.9-0.2,2.6,0.2,3.3,1.8c0.4,0.9,0.4,1.3,0.3,2.5
				c-0.4,4-4,7.8-9.1,9.7c-2,0.7-8.1,2.4-9.6,2.7l-1.2,0.2L-243.1,82.3z M-165.4,107.4c2.1-0.4,4.9-1.5,7-2.9c1.9-1.2,5-4.2,6.3-6
				c1.2-1.7,0.9-3.1-0.7-3.1c-0.3,0-1.2,0.7-2.3,1.7c-2.4,2.3-4,3.5-6.1,4.5c-1.7,0.8-1.9,0.9-4.2,0.9c-2.2,0-2.5-0.1-3.4-0.6
				c-0.6-0.4-1.2-1.2-1.7-1.9c-0.7-1.2-0.7-1.4-0.7-4.3c0-3.1,0.3-4.5,1.4-7c0.5-1.1,0.5-1.2,1.8-1.4c3.9-0.8,9.1-2.1,11.7-2.9
				c9.8-3.2,15-8.3,15-14.8c0-2-0.4-3.2-1.5-4.4c-2.4-2.5-6.9-2.8-12.4-0.9c-7.9,2.8-16.3,10.9-20.6,19.9c-2,4.3-3,7.8-3.4,12
				c-0.4,5.6,2,9.7,6.4,11C-171.4,107.7-167.3,107.8-165.4,107.4L-165.4,107.4z M-166.6,82.1c3.3-6.1,8.7-12.3,12.4-14.2
				c2.8-1.5,5.3-1.3,6.1,0.5c0.5,1,0.4,3.6-0.1,5.1c-1,2.6-3.9,5.5-6.9,6.8c-2.4,1.1-8.7,2.9-11.3,3.4l-1.1,0.2L-166.6,82.1z
				 M-513.7,106.8c10.6-0.1,21.7,0,25.3,0.1c7.4,0.3,7.8,0.2,8.3-1.2c0.2-0.7,0.2-1-0.1-1.7c-0.5-1-1-1.2-4.4-1.8
				c-9-1.6-13.9-5.2-15.6-11.5c-0.7-2.5-0.9-5.2-1.2-14.3c-0.3-8.8-0.1-31.1,0.3-32.6c0.3-1,1.2-1.9,2.1-1.9c1.6,0,2.8,0.9,7.7,6
				c6.9,6.9,15.2,16.3,29.3,32.9c3.3,3.9,6.2,7.3,6.3,7.4s3.7,4.5,8,9.7l7.8,9.4l18.6-0.1c18-0.1,18.7-0.1,19.1-0.5
				c0.5-0.5,0.7-2,0.3-2.8c-0.4-0.7-1-0.9-3.8-1.3c-6-0.8-11-3.3-17.2-8.3c-3.5-2.8-12.1-12.1-25-26.9
				c-9.2-10.5-33.5-39.1-33.6-39.6c-0.1-0.3,9.9-10.7,19.5-20.2c11.9-11.8,20.2-19.6,25.4-24c8.6-7.1,14.1-10.4,20.7-12.2
				c3.5-1,4.4-1.9,3.4-3.9c-0.6-1.2-1.1-1.2-12.7-1c-6.4,0.1-15.1,0.1-22,0c-6.3-0.1-11.8-0.2-12.2-0.1c-1,0.2-2,1.4-2,2.3
				c0,1.2,1.1,2,3.3,2.5c8.5,1.8,10,2.9,9.4,6.9c-0.3,2.1-1.4,4.3-4.2,8c-4.8,6.6-8.1,10.2-22.9,25C-491.6,27-499,34-500.1,34
				c-1.2,0-1.2,0.3-1.1-15.1c0.1-22.1,0.4-34.9,0.8-36.9c1.2-5.7,5.6-9.1,13.9-10.6c3.6-0.7,4.2-0.9,4.6-1.7
				c0.4-0.8,0.4-1.9,0.1-2.4c-0.7-0.9-1-0.9-12.3-0.7c-7.5,0.2-15.9,0.2-26.4,0c-8.5-0.1-15.6-0.2-15.8-0.1
				c-0.9,0.3-1.6,1.1-1.6,1.9c0,1.4,0.9,2,3.4,2.4c6.5,0.9,10.4,4,12.2,9.4c1.7,5,1.6,1.3,1.6,55.2c0,51.9,0,51.8-1.2,56.3
				c-0.8,3.1-1.8,4.9-3.5,6.8c-2.1,2.3-4.8,3.6-9.2,4.3c-2.2,0.4-3,0.7-3.4,1.7c-0.3,0.6-0.3,0.9,0.1,1.6c0.5,1,1.4,1.3,3.6,1.2
				C-533.3,107-524.1,106.9-513.7,106.8L-513.7,106.8z M-236,36c4.6-0.6,9.6-2.2,13.7-4.3c2.5-1.3,6.9-4.1,7.6-4.9
				c0.4-0.4,0.4-1.3,0.5-7.9c0.1-6.9,0.1-7.5,0.6-8.5c1-2.1,2.8-3.1,6.2-3.5c1.8-0.2,2.3-0.6,2.3-1.7c0-1.6,0.6-1.5-16.1-1.5
				c-14.4,0.1-15,0.1-15.5,0.5c-0.7,0.6-0.6,1.5,0,2.1c0.4,0.4,1,0.6,2.9,0.8c3.4,0.4,5.3,1,6.6,2.2c1.7,1.5,1.9,2.2,1.9,8.7
				c0,3.2-0.1,5.9-0.3,6.5c-0.6,2.3-4.8,5.1-9.5,6.3c-2.1,0.6-2.8,0.6-7.1,0.6c-5.2,0-6.8-0.2-10.2-1.6
				c-7.8-3.2-13.2-10.3-15.3-20.5c-0.6-3.1-0.9-9.3-0.5-12.8c0.5-4.7,2-9.6,3.9-12.8c3.7-6.6,9.3-10.9,16.2-12.8
				c3.2-0.9,8.6-1.1,12.4-0.4c9.3,1.4,16.3,6.4,20.3,14.2c1.2,2.3,2.5,3,3.5,1.9c0.4-0.5,0.4-1,0.5-8.6c0.1-9,0-9.2-1.3-9.3
				c-1-0.1-1.3,0.2-1.9,1.7c-0.2,0.7-0.7,1.5-1,1.8c-1,1-1.9,0.8-5.3-1.2c-6.7-3.8-10.9-5.1-18.4-5.4c-9.8-0.4-19.5,2.1-27,7.1
				c-2.8,1.9-6.9,5.9-8.6,8.5c-1.4,2.1-3,5.4-3.8,7.8c-2.5,7.4-2.4,17.9,0.3,25.4c2.3,6.7,6.3,11.8,12.1,15.5
				C-258.5,35.3-247.1,37.5-236,36L-236,36z M-153.4,35.7c8.7-1.8,14.3-6.6,16.2-14c0.7-2.7,0.9-7.7,0.4-10.4c-1-5.1-3.7-9-8.5-12.3
				C-147.9-2.7-151-4-157-6c-8.3-2.8-11.9-4.8-14.1-7.9c-1.7-2.4-2.2-6.4-1.2-9.4c1-2.9,3.7-5.1,7.4-6c3.3-0.8,8.2-0.2,11.2,1.4
				c2.8,1.4,6,4.9,8.1,8.8c1.2,2.2,2.4,2.8,3.1,1.5c0.3-0.6-1.8-15.9-2.3-16.7c-0.4-0.6-1.3-0.7-1.8-0.1c-0.2,0.2-0.6,0.9-0.9,1.4
				c-0.9,1.7-1.9,1.8-5.2,0.6c-7.1-2.5-14.1-2.2-20.4,0.7c-6.3,3-9.5,7.9-9.5,14.7c0,5.9,2.4,10.8,6.9,14.4c3,2.4,6.9,4.3,13.8,6.6
				c11.5,4,15.1,7.5,15.1,14.8c0,3.9-1.1,6.7-3.5,9.1c-3,2.9-7.8,4.3-13.3,3.8c-8.7-0.8-14.9-5.8-17.6-14.2c-0.7-2-1-2.4-2.3-2.3
				c-1.6,0.1-1.6,0.1-1.6,10.1c0,7.3,0.1,8.9,0.4,9.3c0.8,1.2,2,0.8,3.1-1c1.5-2.3,2.1-2.3,6.3-0.5c3.8,1.7,5.1,2.1,7.7,2.8
				C-163.7,36.6-157.6,36.6-153.4,35.7L-153.4,35.7z M-375.5,35.9c0.7-0.3,1-0.7,0.8-1.5c-0.2-0.6-0.8-0.9-2.8-1.3
				c-0.7-0.2-1.9-0.6-2.6-1.1c-1-0.6-1.4-1.1-2-2.2l-0.7-1.4L-383,1.7c-0.1-28.9-0.1-28,1.2-29.9c0.8-1.2,2.8-2.3,4.7-2.6
				c1.8-0.3,2.5-0.7,2.5-1.6c0-1.3,0.4-1.3-14.2-1.3c-13.9,0-14.1,0-14.2,1c-0.1,0.6,0.3,1.4,0.7,1.5c0.2,0.1,1.2,0.3,2.1,0.5
				c3.2,0.7,4.5,2,5.3,4.8c0.3,1.3,0.4,4.5,0.3,27.7l-0.1,26.3l-0.6,1.2c-1,2.2-2.5,3.2-5.9,3.9c-1.1,0.2-1.5,0.4-1.7,0.9
				c-0.4,0.7-0.2,1.4,0.5,1.7C-401.8,36.2-376.4,36.2-375.5,35.9L-375.5,35.9z M-341.4,35.5c0.4-0.7,0.3-1.7-0.3-2
				c-0.2-0.1-1.1-0.4-2-0.5c-4-0.8-5.8-2.7-6.6-7.1c-0.5-2.6-0.8-13.9-1-32.5c-0.1-10.7-0.1-15.4,0.1-15.2
				c0.1,0.1,11.9,13.2,26.1,29.1l25.8,28.8l1.7,0.1l1.7,0.1l0.2-23.1c0.2-25.2,0.4-36,0.9-38.2c0.7-3.4,2.1-4.8,5.5-5.6
				c2.5-0.6,3.2-1.4,2.2-2.5c-0.4-0.4-1.1-0.4-11.8-0.4c-12.5,0-12.1,0-12.1,1.3c0,0.8,0.4,1.3,1.5,1.4c2.1,0.4,4,1.1,5,1.9
				c2.1,1.8,2.9,4.4,3.2,11.3c0.3,5,0.8,33.3,0.7,33.8c-0.1,0.2-10.1-11-22.4-24.7l-22.3-25h-9.4c-10.2,0-10.2,0-10.2,1.3
				c0,0.8,0.7,1.3,2.2,1.5c2.9,0.5,5,1.9,5.9,4c0.4,0.9,0.4,2.1,0.4,16.2c-0.1,17.3-0.4,34.2-0.8,37.1c-0.3,2.5-1.2,4.5-2.4,5.4
				c-1,0.7-1.8,1-3.8,1.4c-1,0.2-1.5,0.4-1.8,0.8c-0.4,0.7-0.3,1.4,0.4,1.7c0.4,0.2,4.3,0.3,11.8,0.3l11.2,0L-341.4,35.5
				L-341.4,35.5z M-197.5-14.8c3-0.9,5.4-3.1,6.9-6.1c1-2.1,1.3-3.4,1.3-5.7c0-2.2-0.5-4-1.5-5.3c-2.8-3.6-9.5-2.8-10.9,1.3
				c-0.8,2.4-0.1,5,1.8,6.3c0.8,0.6,1.3,0.7,2.7,0.8c1.5,0.1,1.8,0,2.6-0.5l1-0.6v0.9c0,2-2.2,4.9-4.8,6.2c-2.2,1.1-2.8,1.9-2,2.8
				C-199.9-14.2-199.3-14.2-197.5-14.8L-197.5-14.8z"/>
		</g>
	</g>
</g>
</svg>
